<?xml version="1.0" encoding="UTF-8" standalone="no"?><!DOCTYPE svg PUBLIC "-//W3C//DTD SVG 1.1//EN" "http://www.w3.org/Graphics/SVG/1.1/DTD/svg11.dtd"><svg width="100%" height="100%" viewBox="0 0 280 40" version="1.1" xmlns="http://www.w3.org/2000/svg" xmlns:xlink="http://www.w3.org/1999/xlink" xml:space="preserve"  style="fill-rule:evenodd;clip-rule:evenodd;stroke-linejoin:round;stroke-miterlimit:1.41421;"><g><path d="M32.404,28.715c0,0.804 -0.677,1.608 -1.65,1.608c-0.846,0 -1.607,-0.634 -1.607,-1.608c0,-0.804 0.592,-1.692 1.607,-1.692c0.677,0 1.312,0.423 1.523,1.101c0.085,0.211 0.127,0.422 0.127,0.591Zm-1.692,-14.554c-1.015,0 -1.65,-0.804 -1.65,-1.65c0,-0.889 0.72,-1.607 1.607,-1.607c0.974,0 1.65,0.803 1.65,1.65c0,0.211 -0.042,0.381 -0.126,0.592c-0.212,0.634 -0.846,1.015 -1.481,1.015Zm-1.734,17.812c0,0.804 -0.635,1.608 -1.609,1.608c-0.888,0 -1.691,-0.635 -1.691,-1.608c0,-0.847 0.633,-1.65 1.607,-1.65c0.804,0 1.312,0.338 1.565,1.058c0.085,0.212 0.128,0.423 0.128,0.592Zm-1.65,-21.662c-0.974,0 -1.65,-0.804 -1.65,-1.65c0,-0.973 0.846,-1.649 1.691,-1.649c0.974,0 1.609,0.804 1.609,1.649c0,0.212 -0.043,0.381 -0.128,0.592c-0.296,0.72 -0.803,1.058 -1.522,1.058Zm-2.667,23.862c0,0.889 -0.676,1.65 -1.649,1.65c-0.846,0 -1.65,-0.676 -1.65,-1.65c0,-0.804 0.677,-1.608 1.692,-1.608c0.635,0 1.27,0.381 1.481,1.016c0.085,0.212 0.126,0.423 0.126,0.592Zm-1.607,-26.104c-1.015,0 -1.692,-0.846 -1.692,-1.65c0,-1.016 0.804,-1.65 1.65,-1.65c0.973,0 1.649,0.804 1.649,1.65c0,0.212 -0.041,0.38 -0.126,0.593c-0.211,0.634 -0.846,1.057 -1.481,1.057Zm-3.469,26.824c0,0.888 -0.634,1.565 -1.608,1.565c-0.804,0 -1.608,-0.592 -1.608,-1.608c0,-0.888 0.635,-1.65 1.608,-1.65c0.635,0 1.269,0.381 1.481,1.015c0.084,0.212 0.127,0.466 0.127,0.678Zm-1.608,-27.501c-0.973,0 -1.608,-0.804 -1.608,-1.65c0,-1.015 0.804,-1.608 1.608,-1.608c0.974,0 1.608,0.719 1.608,1.608c0,0.211 -0.043,0.424 -0.127,0.635c-0.212,0.635 -0.846,1.015 -1.481,1.015Zm-4.865,28.092c-0.973,0 -1.651,-0.803 -1.651,-1.65c0,-0.972 0.847,-1.565 1.651,-1.565c1.015,0 1.65,0.761 1.65,1.608c0,0.127 -0.043,0.338 -0.085,0.55c-0.297,0.635 -0.888,1.057 -1.565,1.057Zm1.65,-28.768c0,0.887 -0.635,1.649 -1.65,1.649c-0.804,0 -1.651,-0.592 -1.651,-1.608c0,-0.845 0.678,-1.649 1.693,-1.649c0.635,0 1.226,0.423 1.523,1.058c0.042,0.211 0.085,0.422 0.085,0.55Zm-5.838,26.146c-0.974,0 -1.608,-0.762 -1.608,-1.65c0,-0.973 0.761,-1.651 1.608,-1.651c0.972,0 1.65,0.72 1.65,1.693c0,0.169 -0.043,0.381 -0.085,0.592c-0.297,0.677 -0.931,1.016 -1.565,1.016Zm1.65,-23.481c0,0.888 -0.678,1.65 -1.65,1.65c-0.804,0 -1.608,-0.635 -1.608,-1.608c0,-0.888 0.634,-1.692 1.608,-1.692c0.676,0 1.268,0.422 1.565,1.1c0.042,0.211 0.085,0.422 0.085,0.55Zm-4.317,19.758c-1.015,0 -1.691,-0.804 -1.691,-1.608c0,-1.016 0.846,-1.65 1.65,-1.65c0.973,0 1.65,0.719 1.65,1.565c0,0.211 -0.043,0.423 -0.127,0.635c-0.212,0.634 -0.847,1.058 -1.482,1.058Zm1.609,-15.993c0,0.804 -0.635,1.565 -1.609,1.565c-0.845,0 -1.691,-0.635 -1.691,-1.65c0,-0.804 0.676,-1.607 1.691,-1.607c0.635,0 1.27,0.423 1.482,1.1c0.084,0.211 0.127,0.422 0.127,0.592Zm-3.3,11.296c-0.974,0 -1.566,-0.804 -1.566,-1.692c0,-0.973 0.719,-1.608 1.566,-1.608c0.972,0 1.691,0.72 1.691,1.608c0,0.212 -0.041,0.423 -0.126,0.635c-0.296,0.677 -0.889,1.057 -1.565,1.057Zm1.691,-6.599c0,0.887 -0.719,1.607 -1.691,1.607c-0.804,0 -1.566,-0.635 -1.566,-1.607c0,-0.805 0.634,-1.65 1.608,-1.65c0.634,0 1.227,0.422 1.523,1.057c0.085,0.211 0.126,0.423 0.126,0.593Z" /><path d="M59.572,32.734c0.972,0 1.607,0.805 1.607,1.65c0,0.974 -0.803,1.65 -1.65,1.65c-0.972,0 -1.65,-0.803 -1.65,-1.65c0,-0.169 0.043,-0.38 0.128,-0.591c0.211,-0.678 0.887,-1.059 1.565,-1.059Zm-4.738,0c0.972,0 1.649,0.805 1.649,1.65c0,0.974 -0.804,1.65 -1.649,1.65c-0.974,0 -1.65,-0.846 -1.65,-1.691c0,-0.17 -0.043,-0.381 0.084,-0.55c0.296,-0.678 0.888,-1.059 1.566,-1.059Zm-4.782,0c0.974,0 1.608,0.847 1.608,1.693c0,0.973 -0.804,1.607 -1.608,1.607c-1.015,0 -1.692,-0.846 -1.692,-1.65c0,-0.169 0.042,-0.38 0.127,-0.591c0.296,-0.678 0.889,-1.059 1.565,-1.059Zm-4.78,0c0.973,0 1.65,0.805 1.65,1.65c0,0.974 -0.804,1.65 -1.65,1.65c-0.974,0 -1.65,-0.846 -1.65,-1.691c0,-0.17 -0.043,-0.381 0.085,-0.55c0.296,-0.678 0.887,-1.059 1.565,-1.059Zm-4.908,0c0.973,0 1.608,0.805 1.608,1.65c0,0.974 -0.804,1.65 -1.65,1.65c-0.973,0 -1.651,-0.846 -1.651,-1.691c0,-0.17 -0.042,-0.381 0.085,-0.55c0.297,-0.678 0.931,-1.059 1.608,-1.059Zm0,-4.484c0.973,0 1.608,0.804 1.608,1.608c0,0.973 -0.847,1.692 -1.693,1.692c-0.973,0 -1.608,-0.889 -1.608,-1.692c0,-0.169 -0.042,-0.381 0.085,-0.55c0.297,-0.677 0.931,-1.058 1.608,-1.058Zm-0.042,-4.738c0.973,0 1.65,0.804 1.65,1.649c0,0.974 -0.804,1.65 -1.65,1.65c-0.973,0 -1.651,-0.804 -1.651,-1.691c0,-0.17 -0.042,-0.382 0.085,-0.55c0.297,-0.635 0.889,-1.058 1.566,-1.058Zm-0.043,-4.739c0.974,0 1.65,0.846 1.65,1.693c0,0.972 -0.804,1.607 -1.607,1.607c-0.973,0 -1.651,-0.804 -1.651,-1.692c0,-0.169 -0.042,-0.381 0.085,-0.551c0.297,-0.718 0.804,-1.057 1.523,-1.057Zm0,-4.612c0.974,0 1.65,0.847 1.65,1.693c0,0.973 -0.846,1.607 -1.65,1.607c-0.973,0 -1.608,-0.846 -1.608,-1.692c0,-0.169 -0.042,-0.38 0.085,-0.55c0.297,-0.719 0.804,-1.058 1.523,-1.058Zm0,-4.696c0.974,0 1.65,0.846 1.65,1.692c0,0.974 -0.804,1.608 -1.607,1.608c-0.973,0 -1.651,-0.804 -1.651,-1.693c0,-0.168 -0.042,-0.38 0.085,-0.549c0.297,-0.72 0.804,-1.058 1.523,-1.058Zm0.043,-4.823c0.973,0 1.607,0.846 1.607,1.65c0,0.974 -0.846,1.608 -1.692,1.608c-0.973,0 -1.608,-0.762 -1.608,-1.608c0,-0.169 0.042,-0.38 0.127,-0.593c0.297,-0.676 0.889,-1.057 1.566,-1.057Z" /><path d="M87.119,32.693c0.973,0 1.693,0.804 1.693,1.65c0,0.972 -0.846,1.649 -1.65,1.649c-0.974,0 -1.65,-0.804 -1.65,-1.692c0,-0.17 -0.043,-0.381 0.085,-0.55c0.296,-0.72 0.804,-1.057 1.522,-1.057Zm0.043,-13.963c0.973,0 1.65,0.804 1.65,1.651c0,0.973 -0.846,1.65 -1.65,1.65c-0.974,0 -1.65,-0.847 -1.65,-1.693c0,-0.169 -0.043,-0.38 0.085,-0.55c0.296,-0.676 0.887,-1.058 1.565,-1.058Zm0,-14.131c0.973,0 1.65,0.847 1.65,1.65c0,0.974 -0.846,1.651 -1.65,1.651c-0.974,0 -1.65,-0.847 -1.65,-1.693c0,-0.169 -0.043,-0.38 0.085,-0.55c0.296,-0.676 0.887,-1.058 1.565,-1.058Zm-4.612,28.094c0.973,0 1.65,0.804 1.65,1.691c0,0.974 -0.803,1.608 -1.65,1.608c-0.972,0 -1.65,-0.761 -1.65,-1.649c0,-0.17 0.043,-0.381 0.128,-0.593c0.295,-0.72 0.803,-1.057 1.522,-1.057Zm0.043,-13.963c0.972,0 1.607,0.847 1.607,1.693c0,0.973 -0.803,1.608 -1.65,1.608c-0.972,0 -1.65,-0.804 -1.65,-1.65c0,-0.169 0.043,-0.381 0.128,-0.593c0.295,-0.676 0.887,-1.058 1.565,-1.058Zm0,-14.131c0.972,0 1.607,0.847 1.607,1.65c0,0.974 -0.846,1.651 -1.65,1.651c-0.972,0 -1.65,-0.804 -1.65,-1.651c0,-0.168 0.043,-0.38 0.128,-0.592c0.295,-0.676 0.887,-1.058 1.565,-1.058Zm-4.823,28.094c0.972,0 1.649,0.804 1.649,1.65c0,0.972 -0.804,1.649 -1.649,1.649c-0.974,0 -1.65,-0.761 -1.65,-1.649c0,-0.17 0.042,-0.381 0.126,-0.593c0.211,-0.635 0.846,-1.057 1.524,-1.057Zm0.041,-13.963c0.974,0 1.608,0.804 1.608,1.608c0,0.974 -0.761,1.693 -1.649,1.693c-0.974,0 -1.65,-0.804 -1.65,-1.65c0,-0.169 0.042,-0.381 0.126,-0.593c0.211,-0.676 0.889,-1.058 1.565,-1.058Zm0,-14.131c0.974,0 1.608,0.804 1.608,1.608c0,0.974 -0.804,1.693 -1.649,1.693c-0.974,0 -1.65,-0.804 -1.65,-1.651c0,-0.168 0.042,-0.38 0.126,-0.592c0.211,-0.676 0.889,-1.058 1.565,-1.058Zm-4.823,28.094c0.974,0 1.65,0.804 1.65,1.691c0,0.974 -0.803,1.608 -1.607,1.608c-0.973,0 -1.65,-0.804 -1.65,-1.692c0,-0.17 -0.043,-0.381 0.085,-0.55c0.296,-0.72 0.803,-1.057 1.522,-1.057Zm0.043,-13.963c0.972,0 1.607,0.847 1.607,1.693c0,0.973 -0.803,1.608 -1.607,1.608c-0.973,0 -1.65,-0.847 -1.65,-1.693c0,-0.169 -0.043,-0.38 0.085,-0.55c0.296,-0.676 0.888,-1.058 1.565,-1.058Zm0,-14.131c0.972,0 1.607,0.847 1.607,1.65c0,0.974 -0.803,1.651 -1.607,1.651c-0.973,0 -1.65,-0.847 -1.65,-1.693c0,-0.169 -0.043,-0.38 0.085,-0.55c0.296,-0.676 0.888,-1.058 1.565,-1.058Zm-4.654,28.135c0.973,0 1.65,0.805 1.65,1.65c0,0.974 -0.804,1.65 -1.693,1.65c-0.972,0 -1.607,-0.803 -1.607,-1.65c0,-0.169 0.042,-0.38 0.127,-0.591c0.211,-0.635 0.846,-1.059 1.523,-1.059Zm0,-4.484c0.973,0 1.65,0.804 1.65,1.65c0,0.973 -0.804,1.65 -1.65,1.65c-0.973,0 -1.65,-0.761 -1.65,-1.65c0,-0.169 0.042,-0.381 0.127,-0.592c0.211,-0.634 0.846,-1.058 1.523,-1.058Zm0.042,-4.697c0.973,0 1.608,0.804 1.608,1.608c0,0.974 -0.762,1.693 -1.65,1.693c-0.973,0 -1.65,-0.804 -1.65,-1.651c0,-0.168 0.042,-0.38 0.127,-0.592c0.211,-0.676 0.889,-1.058 1.565,-1.058Zm0,-4.738c0.973,0 1.608,0.804 1.608,1.651c0,0.972 -0.804,1.65 -1.65,1.65c-0.973,0 -1.65,-0.804 -1.65,-1.65c0,-0.17 0.042,-0.382 0.127,-0.593c0.211,-0.677 0.889,-1.058 1.565,-1.058Zm-0.042,-4.611c0.973,0 1.65,0.804 1.65,1.65c0,0.973 -0.804,1.65 -1.65,1.65c-0.973,0 -1.65,-0.761 -1.65,-1.65c0,-0.17 0.042,-0.381 0.127,-0.593c0.211,-0.635 0.846,-1.057 1.523,-1.057Zm0,-4.697c0.973,0 1.65,0.804 1.65,1.65c0,0.974 -0.804,1.65 -1.65,1.65c-0.973,0 -1.65,-0.761 -1.65,-1.65c0,-0.169 0.042,-0.38 0.127,-0.592c0.211,-0.634 0.846,-1.058 1.523,-1.058Zm0,-4.865c0.973,0 1.65,0.804 1.65,1.65c0,0.974 -0.804,1.65 -1.65,1.65c-0.973,0 -1.65,-0.804 -1.65,-1.693c0,-0.168 -0.043,-0.38 0.085,-0.55c0.296,-0.634 0.888,-1.057 1.565,-1.057Z" /><path d="M121.395,32.904c0.804,0 1.397,0.635 1.523,1.523c0,0.888 -0.507,1.607 -1.48,1.735c-1.058,0 -1.65,-0.508 -1.778,-1.481c0,-0.973 0.593,-1.777 1.735,-1.777Zm-3.639,-2.539c0,-0.804 0.635,-1.396 1.439,-1.523c0.973,0 1.777,0.677 1.777,1.693c0,0.804 -0.762,1.523 -1.734,1.523c-0.804,0 -1.439,-0.677 -1.482,-1.481l0,-0.212Zm-1.946,-4.061c0,-0.888 0.762,-1.523 1.65,-1.523c0.889,0 1.524,0.804 1.524,1.692c0,0.888 -0.762,1.481 -1.65,1.481c-0.804,0 -1.481,-0.635 -1.524,-1.439l0,-0.211Zm-1.988,-4.105c0,-0.845 0.804,-1.522 1.692,-1.522c0.846,0 1.439,0.677 1.566,1.481c0,0.973 -0.508,1.649 -1.524,1.777c-0.887,0 -1.607,-0.508 -1.734,-1.523l0,-0.213Zm-0.466,-5.626c0.889,0 1.735,0.592 1.735,1.735c0,0.846 -0.804,1.522 -1.692,1.522c-0.804,0 -1.397,-0.676 -1.523,-1.48c0,-1.057 0.507,-1.65 1.48,-1.777Zm0.635,9.858c0,0.973 -0.804,1.608 -1.608,1.608c-0.972,0 -1.607,-0.804 -1.607,-1.608c0,-0.974 0.761,-1.65 1.565,-1.65c0.17,0 0.381,0.042 0.593,0.126c0.676,0.296 1.057,0.847 1.057,1.524Zm-4.061,-12.355c0,-0.887 0.718,-1.522 1.692,-1.522c0.804,0 1.523,0.719 1.523,1.692c0,0.847 -0.804,1.48 -1.693,1.48c-0.804,0 -1.48,-0.633 -1.522,-1.437l0,-0.213Zm-1.947,-4.103c0,-0.803 0.72,-1.523 1.693,-1.523c0.889,0 1.522,0.803 1.522,1.692c0,0.804 -0.591,1.397 -1.48,1.523c-0.889,0 -1.607,-0.508 -1.735,-1.48l0,-0.212Zm1.27,16.5c0,0.888 -0.762,1.566 -1.566,1.566c-0.973,0 -1.608,-0.762 -1.608,-1.608c0,-0.974 0.804,-1.608 1.608,-1.608c0.127,0 0.339,0.043 0.55,0.084c0.635,0.296 1.016,0.889 1.016,1.566Zm-1.524,-18.87c-0.887,0 -1.692,-0.719 -1.692,-1.565c0,-0.973 0.762,-1.692 1.65,-1.692c0.974,0 1.566,0.888 1.566,1.735c-0.127,0.888 -0.72,1.522 -1.524,1.522Zm-2.072,4.062c-1.015,0 -1.608,-0.846 -1.608,-1.65c0,-0.845 0.719,-1.565 1.565,-1.565c0.889,0 1.693,0.677 1.693,1.523l0,0.212c-0.128,0.846 -0.804,1.48 -1.65,1.48Zm-1.862,4.061c-0.889,0 -1.65,-0.591 -1.65,-1.48c0,-0.889 0.634,-1.692 1.48,-1.692c0.974,0 1.735,0.592 1.735,1.565l0,0.17c-0.042,0.804 -0.761,1.437 -1.565,1.437Zm0.677,10.747c0,0.888 -0.762,1.566 -1.566,1.566c-0.973,0 -1.608,-0.804 -1.608,-1.608c0,-0.974 0.762,-1.608 1.608,-1.608c0.128,0 0.339,0.043 0.55,0.084c0.635,0.296 1.016,0.889 1.016,1.566Zm-2.581,-6.643c-0.974,0 -1.693,-0.676 -1.693,-1.522c0,-1.058 0.762,-1.735 1.65,-1.735c0.847,0 1.524,0.72 1.524,1.565l0,0.212c-0.043,0.804 -0.677,1.48 -1.481,1.48Zm-2.074,4.105c-1.015,0 -1.608,-0.804 -1.608,-1.693c0,-0.846 0.72,-1.565 1.567,-1.565c1.015,0 1.691,0.761 1.691,1.735c-0.126,0.973 -0.804,1.523 -1.65,1.523Zm-1.861,4.019c-0.973,0 -1.692,-0.635 -1.692,-1.608c0,-0.846 0.719,-1.565 1.523,-1.565c0.889,0 1.692,0.635 1.692,1.523l0,0.211c-0.127,0.804 -0.72,1.439 -1.523,1.439Zm-1.946,4.104c-0.888,0 -1.65,-0.677 -1.65,-1.523c0,-0.974 0.677,-1.693 1.65,-1.693c0.804,0 1.523,0.719 1.523,1.523l0,0.212c-0.042,0.804 -0.719,1.481 -1.523,1.481Zm-2.073,4.104c-0.847,0 -1.566,-0.72 -1.566,-1.524c0,-1.015 0.677,-1.734 1.523,-1.734c1.143,0 1.735,0.889 1.735,1.777c-0.127,0.846 -0.719,1.481 -1.692,1.481Z" /><path d="M147.674,12.935c0,-0.846 0.635,-1.608 1.608,-1.608c0.889,0 1.607,0.592 1.607,1.565c0,0.847 -0.592,1.65 -1.565,1.65c-0.677,0 -1.269,-0.381 -1.565,-1.057c-0.042,-0.128 -0.085,-0.296 -0.085,-0.55Zm-0.254,4.569c0,-0.804 0.677,-1.565 1.565,-1.565c0.804,0 1.693,0.676 1.693,1.649c0,0.846 -0.677,1.566 -1.65,1.566c-0.635,0 -1.269,-0.339 -1.481,-1.016c-0.084,-0.211 -0.127,-0.423 -0.127,-0.634Zm1.312,15.654c0.804,0 1.607,0.592 1.607,1.565c0,0.846 -0.676,1.65 -1.65,1.65c-0.804,0 -1.607,-0.592 -1.607,-1.608c0,-0.718 0.338,-1.184 1.015,-1.481c0.212,-0.084 0.423,-0.126 0.635,-0.126Zm-1.439,-13.031c0.889,0 1.609,0.804 1.609,1.607c0,1.016 -0.847,1.608 -1.651,1.608c-1.016,0 -1.607,-0.761 -1.607,-1.608c0,-0.253 0.041,-0.465 0.084,-0.592c0.296,-0.634 0.889,-1.015 1.565,-1.015Zm-1.904,-11.339c0,-0.846 0.677,-1.65 1.65,-1.65c0.846,0 1.608,0.678 1.608,1.65c0,0.847 -0.677,1.608 -1.649,1.608c-0.635,0 -1.27,-0.381 -1.482,-1.015c-0.085,-0.211 -0.127,-0.381 -0.127,-0.593Zm0.085,21.197c0.846,0 1.65,0.676 1.65,1.65c0,0.845 -0.635,1.608 -1.608,1.608c-0.846,0 -1.65,-0.678 -1.65,-1.65c0,-0.678 0.339,-1.185 1.015,-1.482c0.213,-0.085 0.382,-0.126 0.593,-0.126Zm-2.03,-7.319c0.972,0 1.65,0.846 1.65,1.65c0,0.887 -0.763,1.607 -1.608,1.607c-0.974,0 -1.65,-0.762 -1.65,-1.607c0,-0.17 0.041,-0.381 0.126,-0.593c0.212,-0.635 0.847,-1.057 1.482,-1.057Zm-1.989,-16.163c0,-0.804 0.635,-1.65 1.607,-1.65c0.804,0 1.651,0.678 1.651,1.65c0,0.804 -0.593,1.608 -1.651,1.608c-0.634,0 -1.268,-0.338 -1.48,-1.015c-0.085,-0.212 -0.127,-0.38 -0.127,-0.593Zm0.635,20.351c0.846,0 1.65,0.677 1.65,1.65c0,0.804 -0.635,1.607 -1.609,1.607c-0.804,0 -1.607,-0.676 -1.607,-1.65c0,-0.634 0.338,-1.184 0.973,-1.48c0.212,-0.085 0.38,-0.127 0.593,-0.127Zm-3.385,-3.301c0.973,0 1.607,0.804 1.607,1.608c0,0.974 -0.846,1.609 -1.65,1.609c-0.972,0 -1.565,-0.804 -1.565,-1.609c0,-0.169 -0.042,-0.38 0.085,-0.55c0.211,-0.676 0.846,-1.058 1.523,-1.058Zm-1.989,-17.261c0,-0.804 0.635,-1.65 1.609,-1.65c0.803,0 1.649,0.592 1.649,1.565c0,0.889 -0.677,1.693 -1.649,1.693c-0.635,0 -1.228,-0.423 -1.524,-1.058c-0.127,-0.169 -0.085,-0.38 -0.085,-0.55Zm-4.653,-0.043c0,-0.803 0.592,-1.607 1.565,-1.607c0.846,0 1.693,0.635 1.693,1.607c0,0.847 -0.678,1.651 -1.651,1.651c-0.635,0 -1.228,-0.423 -1.523,-1.058c-0.043,-0.126 -0.084,-0.296 -0.084,-0.593Zm3.173,18.786c0,1.015 -0.635,1.692 -1.523,1.692c-0.974,0 -1.693,-0.592 -1.693,-1.607c0,-0.974 0.762,-1.608 1.608,-1.608c0.973,0.041 1.608,0.676 1.608,1.523Zm-6.262,7.827c0.974,0 1.565,0.719 1.565,1.607c0,0.973 -0.804,1.608 -1.608,1.608c-0.972,0 -1.607,-0.804 -1.607,-1.608c0,-0.254 0.042,-0.422 0.085,-0.55c0.296,-0.676 0.888,-1.057 1.565,-1.057Zm0,-4.527c0.974,0 1.565,0.719 1.565,1.608c0,0.972 -0.804,1.607 -1.608,1.607c-0.972,0 -1.607,-0.804 -1.607,-1.607c0,-0.254 0.042,-0.424 0.085,-0.55c0.296,-0.678 0.888,-1.058 1.565,-1.058Zm0,-4.782c0.974,0 1.565,0.72 1.565,1.608c0,0.974 -0.804,1.609 -1.608,1.609c-0.972,0 -1.607,-0.804 -1.607,-1.609c0,-0.254 0.042,-0.423 0.085,-0.55c0.296,-0.676 0.888,-1.058 1.565,-1.058Zm-0.043,-9.223c1.017,0 1.608,0.763 1.608,1.609c0,0.972 -0.804,1.607 -1.608,1.607c-0.972,0 -1.607,-0.803 -1.607,-1.607c0,-0.255 0.042,-0.424 0.085,-0.55c0.296,-0.678 0.888,-1.059 1.522,-1.059Zm0,-9.477c0.974,0 1.608,0.846 1.608,1.693c0,0.973 -0.804,1.565 -1.608,1.565c-1.015,0 -1.607,-0.804 -1.607,-1.608c0,-0.254 0.042,-0.465 0.085,-0.591c0.211,-0.635 0.846,-1.059 1.522,-1.059Zm0,14.005c0.974,0 1.608,0.804 1.608,1.608c0,0.972 -0.719,1.65 -1.565,1.65c-0.973,0 -1.65,-0.804 -1.65,-1.65c0,-0.17 -0.043,-0.382 0.085,-0.551c0.296,-0.719 0.803,-1.057 1.522,-1.057Zm0,-9.181c0.974,0 1.608,0.804 1.608,1.608c0,0.972 -0.719,1.65 -1.565,1.65c-0.973,0 -1.65,-0.804 -1.65,-1.693c0,-0.17 -0.043,-0.381 0.085,-0.55c0.296,-0.635 0.846,-1.015 1.522,-1.015Z" /><path d="M172.091,26.007c0,-2.411 -1.396,-4.399 -3.131,-4.484l-6.303,0l0,8.97l6.177,0c1.819,0 3.257,-2.032 3.257,-4.486Zm-9.434,-10.111l6.303,0c0.804,-0.212 1.524,-1.523 1.524,-2.961c0,-1.566 -0.72,-2.92 -1.65,-2.92l-6.177,0l0,5.881Zm12.735,2.412c2.157,1.861 3.511,4.654 3.511,7.699c0,5.586 -4.485,10.112 -10.069,10.112l-12.946,0l0,-31.731l12.946,0c4.695,0 8.419,3.85 8.419,8.547c0,1.945 -0.72,3.849 -1.861,5.373Z" /><path d="M198.454,24.4l-3.258,-9.139c-0.972,2.623 -2.157,6.177 -3.258,9.139l6.516,0Zm11.973,11.719l-7.276,0l-2.582,-6.093l-10.788,0l-2.496,6.093l-7.319,0l13.073,-31.731l4.357,0l13.031,31.731Z" /><path d="M241.994,36.119l-7.233,0l-14.048,-20.815l0,20.815l-6.811,0l0,-31.731l7.193,0l14.088,20.858l0,-20.858l6.811,0l0,31.731Z" /><path d="M276.101,30.958c-3.258,3.639 -7.743,5.542 -12.481,5.542c-9.054,0 -16.289,-7.023 -16.289,-16.246c0,-9.182 7.235,-16.205 16.289,-16.205c4.738,0 9.223,1.904 12.523,5.586l-4.568,4.569c-1.777,-2.962 -4.825,-4.527 -7.955,-4.527c-5.626,0 -9.519,5.119 -9.519,10.577c0,5.457 3.851,10.619 9.519,10.619c2.412,0 4.78,-0.719 7.996,-4.4l4.485,4.485Z" /></g></svg>
